<svg xmlns="http://www.w3.org/2000/svg" viewBox="0 0 500 500"><g id="freepik--background-complete--inject-83"><path d="M63.8,133.36a13.64,13.64,0,0,1-.44-1.66,7,7,0,0,0-2.58-3.61,6.69,6.69,0,0,0-6.24-.85,6.53,6.53,0,0,0,0,12.24,6.69,6.69,0,0,0,6.24-.84A7,7,0,0,0,63.36,135a15,15,0,0,1,.44-1.67,3.36,3.36,0,0,1,0,1.77,7,7,0,0,1-2.53,4.14,7.38,7.38,0,0,1-7.07,1.19,7.52,7.52,0,0,1,0-14.19,7.38,7.38,0,0,1,7.07,1.18,7,7,0,0,1,2.53,4.14A3.34,3.34,0,0,1,63.8,133.36Z" style="fill:#e0e0e0"></path><path d="M69.24,117.56c-.06.17-.89-.08-2.15.18A7.1,7.1,0,0,0,63,120.41a15.39,15.39,0,0,0-2.18,4.67c-.41,1.29-.68,2.12-.84,2.09s-.16-.89.06-2.28a11.76,11.76,0,0,1,2.06-5.16A6.87,6.87,0,0,1,67,117C68.5,116.87,69.3,117.45,69.24,117.56Z" style="fill:#e0e0e0"></path><path d="M54.05,127.09c-.12.09-.74-.53-1.46-1.72a45.49,45.49,0,0,0-2.69-4.46,5.89,5.89,0,0,0-4-2.49c-1.25-.13-2,.31-2.1.15s.59-.86,2.11-.94a6,6,0,0,1,4.91,2.58A20.87,20.87,0,0,1,53.3,125C53.82,126.25,54.18,127,54.05,127.09Z" style="fill:#e0e0e0"></path><path d="M426.9,66.79c-.31,0-.56-4.47-.56-10s.25-10,.56-10,.57,4.47.57,10S427.21,66.79,426.9,66.79Z" style="fill:#e0e0e0"></path><path d="M435.47,66.79c-.31,0-.56-4.37-.56-9.77s.25-9.77.56-9.77S436,51.63,436,57,435.79,66.79,435.47,66.79Z" style="fill:#e0e0e0"></path><path d="M444.35,43c.08.09-1,1.32-3.14,2.63a18.45,18.45,0,0,1-19.07-.17c-2.17-1.36-3.18-2.6-3.09-2.69s1.31.87,3.49,2a19.91,19.91,0,0,0,18.29.17C443,43.83,444.23,42.84,444.35,43Z" style="fill:#e0e0e0"></path><path d="M443.44,69.76c-.13.35-5.34-2.79-12.54-2.72s-12.4,3.1-12.53,2.76c-.07-.11,1.1-1,3.32-2a23.89,23.89,0,0,1,9.21-1.87,23.55,23.55,0,0,1,9.21,1.85C442.33,68.72,443.51,69.66,443.44,69.76Z" style="fill:#e0e0e0"></path><path d="M460.74,237.82c0,.25-5.14.5-12.26.62l-2.23,0,2-1a6.28,6.28,0,0,0,3-3.58,5,5,0,0,0-1.71-5.47A4.06,4.06,0,0,0,443,231c-.13.83,0,1.32-.08,1.34s-.35-.43-.36-1.38a4.45,4.45,0,0,1,1.78-3.46,5.07,5.07,0,0,1,5.76,0,6,6,0,0,1,2.21,6.66,7.16,7.16,0,0,1-3.61,4.2l-.25-1C455.59,237.39,460.73,237.57,460.74,237.82Z" style="fill:#e0e0e0"></path><path d="M461.73,252.94c-.32,0-.57-5.62-.57-12.54s.25-12.53.57-12.53.56,5.61.56,12.53S462,252.94,461.73,252.94Z" style="fill:#e0e0e0"></path><path d="M419.23,439.53c.07.05-.2.58-.8,1.46a12.8,12.8,0,0,1-3.18,3.34,7.39,7.39,0,0,1-3.08,1.19,5.27,5.27,0,0,1-3.79-.88c-2.29-1.61-3.13-4.8-5.53-5.53a4.49,4.49,0,0,0-3.49.8,26.16,26.16,0,0,0-3,2.42,9,9,0,0,1-3.24,1.91,4.86,4.86,0,0,1-3.37-.24,5.44,5.44,0,0,1-3-3.53c-.25-1.11,0-1.72,0-1.7s.07.61.43,1.55a5.18,5.18,0,0,0,2.91,2.83c1.65.75,3.72,0,5.49-1.73a25.23,25.23,0,0,1,3.08-2.58,5.6,5.6,0,0,1,4.52-1,6.8,6.8,0,0,1,3.49,2.95,12.7,12.7,0,0,0,2.39,2.86c1.79,1.35,4.21.76,5.68-.13a15.11,15.11,0,0,0,3.27-2.87C418.74,439.9,419.16,439.47,419.23,439.53Z" style="fill:#e0e0e0"></path><path d="M417.56,451.79c.07,0-.21.58-.81,1.46a12.56,12.56,0,0,1-3.17,3.34,7.39,7.39,0,0,1-3.08,1.19,5.27,5.27,0,0,1-3.79-.88c-2.29-1.61-3.14-4.8-5.53-5.53a4.49,4.49,0,0,0-3.49.8,25.32,25.32,0,0,0-3,2.42,9.08,9.08,0,0,1-3.24,1.91,4.86,4.86,0,0,1-3.37-.24,5.48,5.48,0,0,1-3-3.53c-.24-1.11,0-1.72,0-1.7s.07.61.43,1.55a5.23,5.23,0,0,0,2.92,2.83c1.65.75,3.72,0,5.49-1.73A24.5,24.5,0,0,1,397,451.1a5.59,5.59,0,0,1,4.52-1,6.84,6.84,0,0,1,3.49,2.95,12.7,12.7,0,0,0,2.39,2.86c1.79,1.35,4.21.76,5.68-.13a15.11,15.11,0,0,0,3.27-2.87C417.07,452.16,417.49,451.73,417.56,451.79Z" style="fill:#e0e0e0"></path><path d="M462.35,370.25s0,.2,0,.56a8.84,8.84,0,0,1-.27,1.59,6.71,6.71,0,0,1-1.1,2.35,3.64,3.64,0,0,1-3.15,1.51,2,2,0,0,1-1.6-1.45,8.18,8.18,0,0,1-.37-2.21c-.08-1.52,0-3.13,0-4.83a31.53,31.53,0,0,0-.25-5.28,6.6,6.6,0,0,0-1-2.47,2.74,2.74,0,0,0-2.16-1.16h0a4,4,0,0,0-2.88,1.33,8.6,8.6,0,0,0-1.68,3.1,34.4,34.4,0,0,0-1.06,11.84l-.82,0c0-7.32.09-13.5.17-17.65h.48a3.34,3.34,0,0,1-1,2.35,4.75,4.75,0,0,1-1.62.95,3.38,3.38,0,0,1-1.51.28c0-.05.52-.13,1.41-.52a4.86,4.86,0,0,0,1.46-1,3,3,0,0,0,.8-2.09h.48c.08,4.15.14,10.33.17,17.65l-.82,0A34.22,34.22,0,0,1,447,363a9.5,9.5,0,0,1,1.87-3.41,4.84,4.84,0,0,1,3.5-1.59h0a3.54,3.54,0,0,1,2.91,1.51,7.29,7.29,0,0,1,1.12,2.82,30.81,30.81,0,0,1,.21,5.44c0,1.71-.13,3.31-.08,4.79s.26,3,1.39,3.14a3.17,3.17,0,0,0,2.73-1.23,6.56,6.56,0,0,0,1.15-2.17C462.24,371,462.29,370.24,462.35,370.25Z" style="fill:#e0e0e0"></path><path d="M73.09,448.05c.1,0,.07.5.63.94a1.73,1.73,0,0,0,2.5-.45c.84-.93.93-2.65,1.23-4.51s.59-3.9.79-6a37.5,37.5,0,0,0,.15-6,9.07,9.07,0,0,0-1.15-4.55,4,4,0,0,0-2.49-1.69c-.73-.13-1.17,0-1.2-.08s.37-.38,1.24-.39a4.14,4.14,0,0,1,3.15,1.66,9.24,9.24,0,0,1,1.57,5,32.57,32.57,0,0,1-.05,6.23c-.21,2.19-.55,4.25-.9,6.11s-.5,3.69-1.71,4.91a2.83,2.83,0,0,1-2,.9,2.06,2.06,0,0,1-1.5-.7C72.77,448.6,73,448,73.09,448.05Z" style="fill:#e0e0e0"></path><path d="M94.33,446.45c.07,0,0,.5-.26,1.33a4.51,4.51,0,0,1-.79,1.43,3,3,0,0,1-2,1.07,2.48,2.48,0,0,1-2.38-1.56,13.06,13.06,0,0,1-.78-2.88,38,38,0,0,1-.66-6.58,37.1,37.1,0,0,1,.48-6.6,17.53,17.53,0,0,1,1.47-5.26,4.15,4.15,0,0,1,3-2.25c.93-.11,1.38.22,1.35.27s-.5,0-1.26.19a3.86,3.86,0,0,0-2.34,2.18,19.23,19.23,0,0,0-1.13,5,44.89,44.89,0,0,0,.18,12.82,13.27,13.27,0,0,0,.59,2.64,1.57,1.57,0,0,0,1.43,1.13,3,3,0,0,0,2.42-1.84C94,446.86,94.25,446.42,94.33,446.45Z" style="fill:#e0e0e0"></path><path d="M88.11,436.71c0,.34-2,.62-4.57.62s-4.58-.28-4.58-.62,2.05-.61,4.58-.61S88.11,436.38,88.11,436.71Z" style="fill:#e0e0e0"></path><path d="M45.72,333.66a6.71,6.71,0,0,1,.1,1.92c0,1.24-.07,3-.31,5.23a28.47,28.47,0,0,1-1.81,7.6,16.43,16.43,0,0,1-2.35,4.11,1.5,1.5,0,0,1-1.6.48,1.58,1.58,0,0,1-.84-1.44c0-.82-.09-1.66-.13-2.5-.27-5.62-.47-10.79-.6-14.85l.53.36c-2.75.91-5,1.64-6.57,2.12a11.62,11.62,0,0,1-2.49.64A10.58,10.58,0,0,1,32,336.27c1.53-.61,3.74-1.45,6.45-2.45l.5-.18,0,.54c.26,4,.55,9.21.81,14.83l.12,2.46c0,.37.15.61.23.61s.29,0,.53-.26a16.46,16.46,0,0,0,2.18-3.77,30,30,0,0,0,2-7.33C45.41,336.39,45.55,333.65,45.72,333.66Z" style="fill:#e0e0e0"></path><path d="M47,349.28a5.56,5.56,0,0,0,.37,1.88,3.9,3.9,0,0,0,4.17,2.19c2.17-.2,4.3-2.23,5.08-5a7.46,7.46,0,0,0,0-4.39,7.68,7.68,0,0,0-3-3.62A9.75,9.75,0,0,1,50,336.38a3.55,3.55,0,0,1,1.78-4.63,2.58,2.58,0,0,1,2.51.53,3,3,0,0,1,1.07,2.11,3.81,3.81,0,0,1-2,3.41,6.74,6.74,0,0,1-5.49.08A5.92,5.92,0,0,1,46,337a11.27,11.27,0,0,1,1.93.48,6.61,6.61,0,0,0,5-.31,3.1,3.1,0,0,0,1.55-2.74c0-1.1-1.31-2.27-2.44-1.83A2.63,2.63,0,0,0,50.93,336a9.16,9.16,0,0,0,3.24,3.5,8.44,8.44,0,0,1,3.35,4.1,8.33,8.33,0,0,1,0,5,8.79,8.79,0,0,1-2.33,3.82,6,6,0,0,1-3.56,1.63,4.62,4.62,0,0,1-3.15-.8A4.08,4.08,0,0,1,47,351.3,2.4,2.4,0,0,1,47,349.28Z" style="fill:#e0e0e0"></path><path d="M316.78,31s.63-.06,1.51.56a4,4,0,0,1,1.56,4.07,4.56,4.56,0,0,1-1.75,2.63,4.43,4.43,0,0,1-3.58.68,4.56,4.56,0,0,1-3.17-2.5,3.15,3.15,0,0,1-.18-2.27,3.88,3.88,0,0,1,1.39-1.83,18.44,18.44,0,0,1,14-2.46,16,16,0,0,1,4.1,1.47,4.46,4.46,0,0,1,1.33.88c-.08.17-2-1.07-5.56-1.7a19.71,19.71,0,0,0-6.22-.06,17,17,0,0,0-7,2.62,2.34,2.34,0,0,0-.95,3,3.73,3.73,0,0,0,2.53,2,3.6,3.6,0,0,0,2.93-.48,3.87,3.87,0,0,0,1.55-2.15,3.61,3.61,0,0,0-1.14-3.61C317.33,31.15,316.75,31,316.78,31Z" style="fill:#e0e0e0"></path><path d="M327.22,43.91s-.63.07-1.51-.55a4,4,0,0,1-1.56-4.07,4.53,4.53,0,0,1,1.75-2.63,4.39,4.39,0,0,1,3.58-.68,4.54,4.54,0,0,1,3.17,2.49,3.18,3.18,0,0,1,.18,2.28,3.88,3.88,0,0,1-1.39,1.83,18.53,18.53,0,0,1-14,2.46,16.42,16.42,0,0,1-4.1-1.47,4.46,4.46,0,0,1-1.33-.88c.08-.18,2,1.07,5.56,1.69a20,20,0,0,0,6.22.07,17.24,17.24,0,0,0,7-2.62,2.34,2.34,0,0,0,.95-3,3.7,3.7,0,0,0-2.53-2,3.64,3.64,0,0,0-2.93.47,3.91,3.91,0,0,0-1.55,2.15,3.62,3.62,0,0,0,1.14,3.62A10.3,10.3,0,0,0,327.22,43.91Z" style="fill:#e0e0e0"></path><path d="M85,71.53l3.16,1.06L85,73.94a2.73,2.73,0,0,0-1.55,1.72l-1.34,4.53L80.94,75.8a2.7,2.7,0,0,0-1.82-1.91l-3.61-1.11,3.42-1.14a2.71,2.71,0,0,0,1.76-1.9l1.23-4.8,1.37,4.77A2.71,2.71,0,0,0,85,71.53Z" style="fill:#e0e0e0"></path></g><g id="freepik--Hand--inject-83"><path d="M346.31,468.89c-6.6-9.09-4.46-22.18,1.48-31.72s15-16.63,22.9-24.62,15.08-17.79,15.56-29c.51-12.13-6.92-24.08-4.15-35.89,4.09-17.47,27.88-24.82,31.67-42.35,1-4.43.48-9.06,1.34-13.51s3.7-9.06,8.17-9.78c5.09-.82,9.44,3.67,12,8.15a47.07,47.07,0,0,1-.14,45.86c-4.2,7.29-10.53,13.77-11.78,22.09-1.8,12,7.62,23.67,5.41,35.59-1.8,9.74-10.92,16.49-20.22,19.88s-19.28,7.33-28.43,11.09c-21.58,8.87-31,16.48-33.79,44.23" style="fill:#EDB28C"></path><g style="opacity:0.9"><path d="M346.31,468.89c-6.6-9.09-4.46-22.18,1.48-31.72s15-16.63,22.9-24.62,15.08-17.79,15.56-29c.51-12.13-6.92-24.08-4.15-35.89,4.09-17.47,27.88-24.82,31.67-42.35,1-4.43.48-9.06,1.34-13.51s3.7-9.06,8.17-9.78c5.09-.82,9.44,3.67,12,8.15a47.07,47.07,0,0,1-.14,45.86c-4.2,7.29-10.53,13.77-11.78,22.09-1.8,12,7.62,23.67,5.41,35.59-1.8,9.74-10.92,16.49-20.22,19.88s-19.28,7.33-28.43,11.09c-21.58,8.87-31,16.48-33.79,44.23" style="fill:#fff"></path></g><path d="M390.54,160.91c-4.65-13.11-17.48-21.63-22.66-34.52-5.6-13.93-1.95-32-12.18-42.76-7.22-7.61-18.65-8.47-28.11-12.76-14.43-6.54-23.77-20.81-35.15-32-10.09-10-24.88-17.89-37.75-14.08-17.3.28-34.59,9.94-43.23,25.5-8.22,14.82-9.61,34.32-22.57,45-12.24,10.08-31.69,9.16-41.32,21.9-11.15,14.76-1.44,36.9-7.41,54.55-5.32,15.7-21.63,24.32-30.86,38a48.4,48.4,0,0,0-4.14,45.41c5.87,13.46,17.94,24,20.77,38.45,2.48,12.61-2.61,25.29-5.89,37.71s-4.18,27.35,4.63,36.47c9,9.34,24.84,8.81,33.56,18.46,9.74,10.78,5.83,27.84,7.43,42.46,2.16,19.81,23.19,42.67,39.5,53.42l108.2,1.72c8.71-11.54,3.57-22.81,8.38-36.54,8.93-25.47,38.14-40.65,42.55-67.33,2.77-16.84-5.29-34.77.37-50.84,4.41-12.5,16.31-21.05,20.61-33.59,6.89-20.11-7.89-41.28-7.57-62.59C378.06,208.06,398.8,184.21,390.54,160.91Z" style="fill:#EDB28C"></path><g style="opacity:0.9"><path d="M390.54,160.91c-4.65-13.11-17.48-21.63-22.66-34.52-5.6-13.93-1.95-32-12.18-42.76-7.22-7.61-18.65-8.47-28.11-12.76-14.43-6.54-23.77-20.81-35.15-32-10.09-10-24.88-17.89-37.75-14.08-17.3.28-34.59,9.94-43.23,25.5-8.22,14.82-9.61,34.32-22.57,45-12.24,10.08-31.69,9.16-41.32,21.9-11.15,14.76-1.44,36.9-7.41,54.55-5.32,15.7-21.63,24.32-30.86,38a48.4,48.4,0,0,0-4.14,45.41c5.87,13.46,17.94,24,20.77,38.45,2.48,12.61-2.61,25.29-5.89,37.71s-4.18,27.35,4.63,36.47c9,9.34,24.84,8.81,33.56,18.46,9.74,10.78,5.83,27.84,7.43,42.46,2.16,19.81,23.19,42.67,39.5,53.42l108.2,1.72c8.71-11.54,3.57-22.81,8.38-36.54,8.93-25.47,38.14-40.65,42.55-67.33,2.77-16.84-5.29-34.77.37-50.84,4.41-12.5,16.31-21.05,20.61-33.59,6.89-20.11-7.89-41.28-7.57-62.59C378.06,208.06,398.8,184.21,390.54,160.91Z" style="fill:#fff"></path></g><path d="M96.49,261.11c-6.83-20.38-21.13-40-41.93-45.44-6.8-1.76-14.24-1.86-20.65,1s-11.56,9-12,16c-.77,12,11.38,20.8,22.83,24.54s24.4,5.46,32.87,14c7.68,7.79,9.72,19.31,13.4,29.61s10.33,21.05,21.26,21.49C100.13,300.29,103.32,281.49,96.49,261.11Z" style="fill:#EDB28C"></path><g style="opacity:0.9"><path d="M96.49,261.11c-6.83-20.38-21.13-40-41.93-45.44-6.8-1.76-14.24-1.86-20.65,1s-11.56,9-12,16c-.77,12,11.38,20.8,22.83,24.54s24.4,5.46,32.87,14c7.68,7.79,9.72,19.31,13.4,29.61s10.33,21.05,21.26,21.49C100.13,300.29,103.32,281.49,96.49,261.11Z" style="fill:#fff"></path></g><path d="M404.14,215.34c-4.56-9.05-.65-23.52,3.37-32.83s9.6-18.11,11.45-28.08-.22-20.48,1.58-30.53,10-20.48,20.07-19c7.59,1.11,12.69,8.44,15.37,15.63s3.83,14.83,2.31,22.22c-3.14,15.22-16.66,25.68-28.85,35.32s-24.92,21.75-25.3,37.28" style="fill:#EDB28C"></path><g style="opacity:0.9"><path d="M404.14,215.34c-4.56-9.05-.65-23.52,3.37-32.83s9.6-18.11,11.45-28.08-.22-20.48,1.58-30.53,10-20.48,20.07-19c7.59,1.11,12.69,8.44,15.37,15.63s3.83,14.83,2.31,22.22c-3.14,15.22-16.66,25.68-28.85,35.32s-24.92,21.75-25.3,37.28" style="fill:#fff"></path></g><path d="M316.3,137.15s11.6.3,12.52,14.65,2.14,60.78,0,86.12,2.71,41.84-5.67,77A365.78,365.78,0,0,1,302.86,376s-4.27,8.85-1.83,22.29,12.33,85.51,12.33,85.51H205.14s.91-66.27,1.22-73.91-1.22-26.87-7.94-35.11S174.6,340.53,167,328.93s-18.93-28.4-19.85-37.26S137,249.83,133.37,237.31s-15.88-32.67-15.88-32.67,5.19-12.83,18.63-6.42,25.35,20.77,29,33.29,12.22,28.71,12.22,28.71l8.55,7.32,9.77-27.79L200,212.58s4.88-60.78,7-69.63,8.86-54.67,24.13-52.83,10.38,19.24,9.16,30.23-3.67,35.42-4.89,39.39-.92,44.28-.92,44.28,4.28,1.53,4.28-3.66,2.75-56.19,3.36-64.44,5.92-48.83,7.33-55.27c1.16-5.34,7.33-8.86,14.66-7.94s9.46,7.94,9.16,19.85-2.75,44.89-3.06,50.08-.61,15,0,18.33-.61,40.31-.61,40.31L272,204s3.66-34.5,3.36-42.14,0-56.49,1.22-60.77,7-11,12.52-8.86,9.16,3.36,10.38,20.77,1.53,69.63,1.83,74.82-2.13,32.06-2.13,32.06l.91,3.36s5.8-23.51,5.8-29.92.92-48.87,3.67-52.84A7.25,7.25,0,0,1,316.3,137.15Z" style="fill:#ffbe9d"></path><path d="M265,198.76a18.57,18.57,0,0,0,13.14,6.59,6.08,6.08,0,0,1-2.25.05,15,15,0,0,1-9.58-4.8A6.25,6.25,0,0,1,265,198.76Z" style="fill:#eb996e"></path><path d="M223,205.17c0-.09,1.27,0,3.29,0a39.79,39.79,0,0,0,15.36-3.23c1.86-.79,3-1.39,3-1.31s-.24.21-.73.51a22.67,22.67,0,0,1-2.13,1.14,34.14,34.14,0,0,1-7.56,2.55,33.71,33.71,0,0,1-7.95.71c-1,0-1.85-.11-2.41-.19A3.53,3.53,0,0,1,223,205.17Z" style="fill:#eb996e"></path><path d="M247.42,240.8a4.12,4.12,0,0,1,.65.5l1.81,1.51c1.56,1.3,3.81,3.23,6.66,5.5a124,124,0,0,0,10.35,7.52,66,66,0,0,0,14,6.93,50.25,50.25,0,0,0,7.82,2,60.79,60.79,0,0,0,7.51.72c4.81.2,9.16.15,12.82.37A50.45,50.45,0,0,1,317.6,267a22.8,22.8,0,0,1,2.27.61,6.09,6.09,0,0,1,.78.27,4.36,4.36,0,0,1-.81-.17c-.52-.13-1.28-.33-2.28-.52a57.64,57.64,0,0,0-8.56-1c-3.64-.18-8-.09-12.82-.26a60,60,0,0,1-7.57-.7,48.88,48.88,0,0,1-7.91-2,64.63,64.63,0,0,1-14.07-7,117.38,117.38,0,0,1-10.32-7.63c-2.83-2.32-5-4.29-6.57-5.64L248,241.38A6,6,0,0,1,247.42,240.8Z" style="fill:#eb996e"></path><path d="M278.27,280.29a4.53,4.53,0,0,1,1.05.5c.65.36,1.59.87,2.77,1.49a90.84,90.84,0,0,0,19.29,7.46c1.29.33,2.33.59,3.06.76a4.91,4.91,0,0,1,1.11.33,5.09,5.09,0,0,1-1.15-.13c-.74-.11-1.8-.31-3.1-.61a71.75,71.75,0,0,1-19.39-7.49c-1.15-.66-2.08-1.22-2.7-1.63A5.69,5.69,0,0,1,278.27,280.29Z" style="fill:#eb996e"></path><path d="M196.93,236.48l.27,0,.79.15c.69.14,1.72.3,3,.62a106.12,106.12,0,0,1,10.92,3.11,110,110,0,0,1,57.59,45.74,101.25,101.25,0,0,1,5.5,9.92c.61,1.2,1,2.16,1.3,2.8.13.3.23.55.31.74a1.16,1.16,0,0,1,.1.26,1,1,0,0,1-.14-.24l-.37-.71c-.32-.63-.75-1.58-1.38-2.76-1.21-2.38-3.06-5.78-5.63-9.81a112.22,112.22,0,0,0-57.4-45.59c-4.51-1.59-8.25-2.63-10.84-3.26-1.3-.35-2.32-.55-3-.72l-.78-.19A1.1,1.1,0,0,1,196.93,236.48Z" style="fill:#eb996e"></path><path d="M235.81,347.74a1.2,1.2,0,0,1,.08-.28c.08-.21.17-.48.29-.82.25-.72.69-1.76,1.14-3.14a93,93,0,0,0,3.22-11.82,91.1,91.1,0,0,0-18.64-75.92,93.69,93.69,0,0,0-8.34-9c-1-1-1.9-1.73-2.45-2.25l-.64-.59-.21-.22.24.18.68.55c.57.5,1.47,1.19,2.52,2.18a85.06,85.06,0,0,1,8.48,8.9,89.51,89.51,0,0,1,10.15,15.13,88.58,88.58,0,0,1,10.56,43,89.73,89.73,0,0,1-2,18.11,86,86,0,0,1-3.39,11.81c-.48,1.37-.95,2.4-1.23,3.11l-.34.8C235.86,347.66,235.82,347.75,235.81,347.74Z" style="fill:#eb996e"></path><path d="M184.74,270.08s.08-.33.5-.74a4.26,4.26,0,0,1,2.2-1,15.86,15.86,0,0,1,3.57-.09,42.24,42.24,0,0,1,4.33.45,41.4,41.4,0,0,1,7.64,1.94c1,.34,1.7.66,2.21.89a3.06,3.06,0,0,1,.78.42,32.53,32.53,0,0,1-3.11-1,54.75,54.75,0,0,0-7.6-1.78c-1.51-.23-3-.39-4.28-.48a16.91,16.91,0,0,0-3.48,0,4.31,4.31,0,0,0-2.13.8C184.94,269.83,184.77,270.1,184.74,270.08Z" style="fill:#eb996e"></path><path d="M166.71,299.57a8.44,8.44,0,0,1,.82-1.23l2.35-3.26c2-2.74,4.69-6.56,7.42-10.94a113.32,113.32,0,0,0,6.33-11.6c.71-1.54,1.27-2.79,1.64-3.66a7.5,7.5,0,0,1,.63-1.34,8.65,8.65,0,0,1-.44,1.41c-.31.9-.82,2.18-1.5,3.74a91.13,91.13,0,0,1-6.21,11.72c-2.75,4.4-5.51,8.2-7.57,10.89-1,1.35-1.89,2.43-2.49,3.16A8.2,8.2,0,0,1,166.71,299.57Z" style="fill:#eb996e"></path><path d="M165.92,269.78a7.24,7.24,0,0,1,1.1-1.89A22.19,22.19,0,0,1,175,261a6.83,6.83,0,0,1,2-.82,48.87,48.87,0,0,0-6.06,4.18A49.63,49.63,0,0,0,165.92,269.78Z" style="fill:#eb996e"></path><path d="M148.63,232.31a26.38,26.38,0,0,0,8-.71,26.13,26.13,0,0,0,7.19-3.59,7.05,7.05,0,0,1-1.8,1.6,17.47,17.47,0,0,1-11,3.12A7.54,7.54,0,0,1,148.63,232.31Z" style="fill:#eb996e"></path><path d="M264.08,370.56a10.49,10.49,0,0,1,1.44.77c.45.26,1,.58,1.67.89s1.41.74,2.28,1.07,1.79.77,2.83,1.11,2.16.68,3.34,1a41.14,41.14,0,0,0,15.88.89c1.21-.2,2.37-.36,3.43-.63s2.05-.51,2.94-.78,1.68-.57,2.38-.81a18,18,0,0,0,1.77-.71,9.15,9.15,0,0,1,1.51-.59,10.45,10.45,0,0,1-1.43.78,16.8,16.8,0,0,1-1.74.79c-.69.27-1.47.62-2.37.89s-1.88.61-3,.85-2.24.47-3.46.69a39.84,39.84,0,0,1-16.07-.9c-1.19-.36-2.33-.66-3.36-1.08a27.76,27.76,0,0,1-2.84-1.17,24.77,24.77,0,0,1-2.26-1.15,16.38,16.38,0,0,1-1.65-1A9.4,9.4,0,0,1,264.08,370.56Z" style="fill:#eb996e"></path><path d="M220.88,385.62a2.63,2.63,0,0,1,.65-.11l1.9-.21c1.65-.18,4-.38,7-.57,5.92-.38,14.11-.62,23.15-.31s17.2,1.15,23.07,1.95c2.93.4,5.3.77,6.93,1.06l1.88.34a3.29,3.29,0,0,1,.65.16,3,3,0,0,1-.67-.05l-1.89-.25c-1.64-.23-4-.54-7-.89-5.87-.71-14-1.47-23-1.8s-17.2-.13-23.11.16c-2.95.14-5.34.28-7,.4l-1.91.11A4.71,4.71,0,0,1,220.88,385.62Z" style="fill:#eb996e"></path><path d="M226.83,395.12s.15-.07.45-.14l1.34-.33c1.16-.27,2.85-.61,4.95-1A123.75,123.75,0,0,1,250.13,392a122.25,122.25,0,0,1,16.65.59c2.12.22,3.83.45,5,.65l1.35.23a1.6,1.6,0,0,1,.47.12,2.18,2.18,0,0,1-.48,0l-1.37-.13c-1.18-.14-2.89-.31-5-.49a140.39,140.39,0,0,0-33.11,1.1c-2.1.31-3.8.6-5,.81l-1.35.23A1.75,1.75,0,0,1,226.83,395.12Z" style="fill:#eb996e"></path><path d="M283.47,165.41a5.88,5.88,0,0,1,2-.86,13.41,13.41,0,0,1,10.42,1.53,5.79,5.79,0,0,1,1.72,1.41c-.05.07-.72-.45-1.9-1.09a15.33,15.33,0,0,0-4.95-1.63,15.61,15.61,0,0,0-5.21.14C284.29,165.18,283.5,165.49,283.47,165.41Z" style="fill:#eb996e"></path><path d="M284.79,173.55a22.07,22.07,0,0,0,5.92,1.77,22.72,22.72,0,0,0,6.17-.44,5,5,0,0,1-1.74.67,13.06,13.06,0,0,1-8.81-1A4.54,4.54,0,0,1,284.79,173.55Z" style="fill:#eb996e"></path><path d="M246.92,148.86s.21-.16.64-.36a10.74,10.74,0,0,1,1.88-.67,16.12,16.12,0,0,1,12.77,2,11.51,11.51,0,0,1,1.59,1.22c.34.33.52.52.5.55s-.85-.62-2.29-1.45a17.49,17.49,0,0,0-12.48-2C247.91,148.54,247,149,246.92,148.86Z" style="fill:#eb996e"></path><path d="M248.06,159.67c0-.16,3.27.39,7.3.48s7.29-.26,7.31-.1a7.33,7.33,0,0,1-2.12.4,37.47,37.47,0,0,1-5.21.22,36.21,36.21,0,0,1-5.18-.49A8.44,8.44,0,0,1,248.06,159.67Z" style="fill:#eb996e"></path><path d="M213.4,158.27a9.55,9.55,0,0,1,2.61-.87,26,26,0,0,1,13.16.31,10.44,10.44,0,0,1,2.56,1c0,.08-1-.26-2.65-.64a31.19,31.19,0,0,0-13-.31C214.43,158.06,213.43,158.35,213.4,158.27Z" style="fill:#eb996e"></path><path d="M211.15,166.85c0-.08.84.28,2.19.63a16.81,16.81,0,0,0,5.38.48,16.63,16.63,0,0,0,5.25-1.32c1.28-.55,2-1,2.06-1a6.13,6.13,0,0,1-1.9,1.3,14.52,14.52,0,0,1-10.9.85A6.05,6.05,0,0,1,211.15,166.85Z" style="fill:#eb996e"></path><path d="M217.5,128.83a41.85,41.85,0,0,0,7.7.52,41.44,41.44,0,0,0,7.59-1.43,7.19,7.19,0,0,1-2.1.93,21.88,21.88,0,0,1-5.45,1,21.65,21.65,0,0,1-5.54-.37A7.33,7.33,0,0,1,217.5,128.83Z" style="fill:#eb996e"></path><path d="M250.58,113.3c0-.15,3.37.39,7.52.58s7.52,0,7.54.13a9,9,0,0,1-2.2.32,44.9,44.9,0,0,1-10.7-.5A8.23,8.23,0,0,1,250.58,113.3Z" style="fill:#eb996e"></path><path d="M286.16,132.71a16.26,16.26,0,0,0,4.56,2.14,16,16,0,0,0,5,.14,3.08,3.08,0,0,1-1.45.49,9.25,9.25,0,0,1-3.7-.12,9.07,9.07,0,0,1-3.36-1.56C286.48,133.22,286.12,132.75,286.16,132.71Z" style="fill:#eb996e"></path><path d="M315.6,167.6c.08-.14,2.33,1.29,5.43,2.22s5.75,1.05,5.74,1.21a13.51,13.51,0,0,1-5.9-.71A13.36,13.36,0,0,1,315.6,167.6Z" style="fill:#eb996e"></path><path d="M235.12,111a12.39,12.39,0,0,1,.37-1.21,3.1,3.1,0,0,0,.1-1.42,1.68,1.68,0,0,0-1.09-1.32,2.09,2.09,0,0,0-1.91.85,15.53,15.53,0,0,0-1.57,2.2,17.51,17.51,0,0,0-2.17,5.8l0,.18-.52-.08a26.65,26.65,0,0,0,.2-6.19,6.74,6.74,0,0,0-.55-2.56,2.28,2.28,0,0,0-1.65-1.3,2.31,2.31,0,0,0-1.68.57,4.38,4.38,0,0,0-.91,1.1,11.54,11.54,0,0,1-.64,1.08,4,4,0,0,1,.46-1.18,4.52,4.52,0,0,1,.91-1.22,2.54,2.54,0,0,1,1.9-.71,2.63,2.63,0,0,1,2,1.46,7.06,7.06,0,0,1,.65,2.72,26.41,26.41,0,0,1-.16,6.3l-.52-.08,0-.18a17.33,17.33,0,0,1,2.27-6,14.13,14.13,0,0,1,1.67-2.25,2.42,2.42,0,0,1,2.32-.9,1.94,1.94,0,0,1,1.27,1.62,3.12,3.12,0,0,1-.18,1.53,6.53,6.53,0,0,1-.39.87C235.2,110.91,235.13,111,235.12,111Z" style="fill:#263238"></path><path d="M224.92,146.19s0-.29-.2-.77a3.19,3.19,0,0,0-1.19-1.66,3,3,0,1,0,0,4.86,3.21,3.21,0,0,0,1.19-1.67c.15-.47.16-.76.2-.76a1.44,1.44,0,0,1,0,.81,3.2,3.2,0,0,1-1.17,1.91,3.42,3.42,0,0,1-3.26.55,3.47,3.47,0,0,1,0-6.54,3.41,3.41,0,0,1,3.26.54,3.23,3.23,0,0,1,1.17,1.91A1.46,1.46,0,0,1,224.92,146.19Z" style="fill:#263238"></path><path d="M227.43,138.9c0,.08-.41,0-1,.09a3.31,3.31,0,0,0-1.89,1.23,7.14,7.14,0,0,0-1,2.15c-.19.6-.31,1-.38,1s-.08-.41,0-1.05a5.54,5.54,0,0,1,.95-2.38,3.19,3.19,0,0,1,2.25-1.28C227.09,138.59,227.46,138.86,227.43,138.9Z" style="fill:#263238"></path><path d="M220.43,143.3c-.05,0-.34-.25-.67-.8a20.75,20.75,0,0,0-1.24-2.05,2.76,2.76,0,0,0-1.86-1.15c-.58-.06-.93.14-1,.07s.27-.4,1-.44a2.78,2.78,0,0,1,2.26,1.2,9.33,9.33,0,0,1,1.16,2.21C220.32,142.91,220.49,143.25,220.43,143.3Z" style="fill:#263238"></path><path d="M265,137.72s-.08.23-.33.59a4.8,4.8,0,0,1-1.28,1.34,2.76,2.76,0,0,1-1.24.48,2.08,2.08,0,0,1-1.52-.35c-.92-.65-1.27-1.94-2.23-2.23a1.83,1.83,0,0,0-1.41.32,10.94,10.94,0,0,0-1.2,1,3.63,3.63,0,0,1-1.31.77,2,2,0,0,1-1.35-.1,2.19,2.19,0,0,1-1.23-1.42c-.1-.45,0-.69,0-.69s0,.25.17.63a2.12,2.12,0,0,0,1.18,1.14,2.08,2.08,0,0,0,2.21-.7,10.44,10.44,0,0,1,1.24-1,2.26,2.26,0,0,1,1.82-.39,2.76,2.76,0,0,1,1.41,1.19,5.13,5.13,0,0,0,1,1.15,2.11,2.11,0,0,0,2.29,0,6.07,6.07,0,0,0,1.31-1.16C264.79,137.87,265,137.7,265,137.72Z" style="fill:#263238"></path><path d="M264.31,142.66s-.08.23-.32.59a5.12,5.12,0,0,1-1.28,1.34,2.93,2.93,0,0,1-1.24.48,2.12,2.12,0,0,1-1.53-.35c-.92-.65-1.26-1.94-2.22-2.23a1.82,1.82,0,0,0-1.41.32,11.07,11.07,0,0,0-1.2,1,3.51,3.51,0,0,1-1.31.77,2,2,0,0,1-1.36-.09,2.19,2.19,0,0,1-1.22-1.42c-.1-.45,0-.7,0-.69s0,.25.17.63a2.13,2.13,0,0,0,1.17,1.14,2.1,2.1,0,0,0,2.21-.7,10.59,10.59,0,0,1,1.25-1,2.26,2.26,0,0,1,1.82-.39,2.69,2.69,0,0,1,1.4,1.19,5.41,5.41,0,0,0,1,1.15,2.1,2.1,0,0,0,2.29-.05,5.92,5.92,0,0,0,1.32-1.16C264.12,142.81,264.29,142.63,264.31,142.66Z" style="fill:#263238"></path><path d="M217.51,191.44a20.84,20.84,0,0,1-.26-4.6,20.84,20.84,0,0,1,.26-4.6,20.13,20.13,0,0,1,.26,4.6A20.13,20.13,0,0,1,217.51,191.44Z" style="fill:#263238"></path><path d="M221.46,191.44a19.91,19.91,0,0,1-.26-4.5,19.91,19.91,0,0,1,.26-4.5,18.9,18.9,0,0,1,.27,4.5A18.9,18.9,0,0,1,221.46,191.44Z" style="fill:#263238"></path><path d="M225.55,180.47a3.93,3.93,0,0,1-1.44,1.21,8.53,8.53,0,0,1-8.79-.08c-1-.62-1.47-1.2-1.42-1.24s.6.4,1.6.92a9.22,9.22,0,0,0,8.43.08C225,180.86,225.5,180.4,225.55,180.47Z" style="fill:#263238"></path><path d="M225.14,192.81a13.89,13.89,0,0,0-11.56,0,4.18,4.18,0,0,1,1.53-.93,11,11,0,0,1,8.49,0A4.21,4.21,0,0,1,225.14,192.81Z" style="fill:#263238"></path><path d="M221.11,219.66a38,38,0,0,1-5.65.29l-1,0,.91-.49a2.83,2.83,0,0,0,1.39-1.65,2.29,2.29,0,0,0-.79-2.52,1.87,1.87,0,0,0-3,1.22c-.06.39,0,.61,0,.62s-.16-.2-.16-.64a2,2,0,0,1,.82-1.59,2.32,2.32,0,0,1,2.65,0,2.76,2.76,0,0,1,1,3.07,3.26,3.26,0,0,1-1.66,1.94l-.12-.47A37.46,37.46,0,0,1,221.11,219.66Z" style="fill:#263238"></path><path d="M221.56,226.63a32.78,32.78,0,0,1-.26-5.78,32.78,32.78,0,0,1,.26-5.78,31.67,31.67,0,0,1,.26,5.78A31.67,31.67,0,0,1,221.56,226.63Z" style="fill:#263238"></path><path d="M158.94,248.45s-.19-.37-.64-.95a4.67,4.67,0,0,0-2.51-1.66,4.49,4.49,0,0,0-5.33,6,4.48,4.48,0,0,0,8,.69,4.65,4.65,0,0,0,.7-2.92c-.08-.73-.24-1.11-.19-1.13s.07.08.15.27a3.85,3.85,0,0,1,.24.84,4.68,4.68,0,0,1-.58,3.13,4.85,4.85,0,0,1-4,2.41,4.91,4.91,0,0,1-3.41-8.61,4.86,4.86,0,0,1,4.58-1,4.62,4.62,0,0,1,2.57,1.89,3.38,3.38,0,0,1,.4.78C158.93,248.34,159,248.44,158.94,248.45Z" style="fill:#263238"></path><path d="M159.73,262.81a19.26,19.26,0,0,1-1.89-4.06,20,20,0,0,1-1.41-4.26,39.2,39.2,0,0,1,3.3,8.32Z" style="fill:#263238"></path><path d="M162.35,258a16,16,0,0,1-3.59,1.7,16,16,0,0,1-3.78,1.22,15,15,0,0,1,3.59-1.71A15,15,0,0,1,162.35,258Z" style="fill:#263238"></path><path d="M261.59,219.29s0,.11,0,.33a4.51,4.51,0,0,1-.16.95,4.1,4.1,0,0,1-.65,1.4,2.17,2.17,0,0,1-1.88.9,1.18,1.18,0,0,1-1-.87,4.79,4.79,0,0,1-.21-1.32c-.05-.9,0-1.86,0-2.87a19.77,19.77,0,0,0-.15-3.15,3.9,3.9,0,0,0-.6-1.47,1.6,1.6,0,0,0-1.28-.7h0a2.36,2.36,0,0,0-1.71.8,5,5,0,0,0-1,1.84,20.37,20.37,0,0,0-.64,7.07l-.49,0c0-4.37.06-8.05.11-10.53h.28a2,2,0,0,1-.61,1.4,2.68,2.68,0,0,1-1,.57,2,2,0,0,1-.9.17s.31-.08.84-.31a2.92,2.92,0,0,0,.87-.58,1.75,1.75,0,0,0,.48-1.25h.28c.05,2.48.09,6.16.1,10.53l-.48,0a20.41,20.41,0,0,1,.62-7.27,5.55,5.55,0,0,1,1.12-2,2.87,2.87,0,0,1,2.09-1h0a2.12,2.12,0,0,1,1.74.91,4.24,4.24,0,0,1,.67,1.68,18,18,0,0,1,.12,3.24c0,1-.07,2,0,2.86s.15,1.8.83,1.87a1.89,1.89,0,0,0,1.62-.73,3.84,3.84,0,0,0,.69-1.3C261.52,219.74,261.56,219.28,261.59,219.29Z" style="fill:#263238"></path><path d="M291.07,222c-.05,0-.05-.41-.25-1.11a4.57,4.57,0,0,0-1.71-2.45,4.45,4.45,0,1,0,0,7.13,4.57,4.57,0,0,0,1.71-2.45c.2-.7.2-1.12.25-1.12s0,.11,0,.3a3.47,3.47,0,0,1-.09.87,4.6,4.6,0,0,1-1.68,2.69,4.86,4.86,0,0,1-4.62.76,4.89,4.89,0,1,1,4.62-8.48,4.65,4.65,0,0,1,1.68,2.7,3.44,3.44,0,0,1,.09.86C291.1,221.88,291.09,222,291.07,222Z" style="fill:#263238"></path><circle cx="286.3" cy="222.24" r="0.82" style="fill:#263238"></circle><path d="M251.22,190.38s0,.21.26.4a.74.74,0,0,0,1.07-.2,4,4,0,0,0,.53-1.92c.12-.79.25-1.66.33-2.57a16.18,16.18,0,0,0,.07-2.57,3.93,3.93,0,0,0-.49-1.94,1.67,1.67,0,0,0-1.07-.72c-.31-.06-.49,0-.51,0s.16-.16.53-.16a1.74,1.74,0,0,1,1.34.7,3.92,3.92,0,0,1,.67,2.12,13.86,13.86,0,0,1,0,2.65c-.09.94-.23,1.82-.38,2.61a4,4,0,0,1-.73,2.09,1.2,1.2,0,0,1-.84.39.87.87,0,0,1-.64-.3C251.08,190.61,251.19,190.36,251.22,190.38Z" style="fill:#263238"></path><path d="M260.27,189.69s0,.22-.11.57a2,2,0,0,1-.33.61,1.28,1.28,0,0,1-.87.46,1.06,1.06,0,0,1-1-.67,5.22,5.22,0,0,1-.34-1.23,16.09,16.09,0,0,1-.28-2.8,15.63,15.63,0,0,1,.21-2.82,7.31,7.31,0,0,1,.62-2.24,1.77,1.77,0,0,1,1.29-1c.4-.05.59.09.58.11s-.22,0-.54.09a1.63,1.63,0,0,0-1,.93,8.4,8.4,0,0,0-.48,2.14,19.72,19.72,0,0,0-.16,2.74,17.66,17.66,0,0,0,.24,2.73,5.28,5.28,0,0,0,.25,1.13.67.67,0,0,0,.61.48,1.29,1.29,0,0,0,1-.78C260.15,189.87,260.24,189.68,260.27,189.69Z" style="fill:#263238"></path><path d="M257.62,185.54c0,.14-.87.26-2,.26s-1.95-.12-1.95-.26.87-.26,1.95-.26S257.62,185.4,257.62,185.54Z" style="fill:#263238"></path><path d="M284.3,198.49a35.34,35.34,0,0,1-.35-6c0-.81,0-1.59,0-2.34a3.75,3.75,0,0,0-.22-1.77,1.08,1.08,0,0,0-.9-.59c-.27,0-.41.1-.44.06s.08-.2.43-.27a1.29,1.29,0,0,1,1.23.62,3.83,3.83,0,0,1,.38,2c0,.75,0,1.52.05,2.33A35.28,35.28,0,0,1,284.3,198.49Z" style="fill:#263238"></path><path d="M288.55,198.55a45,45,0,0,1-.54-6.92,5.46,5.46,0,0,0-.37-2.5,1.5,1.5,0,0,0-1.75-.35,4.52,4.52,0,0,0-1.19.78c-.27.23-.43.35-.45.32s.08-.19.31-.46a3.77,3.77,0,0,1,1.18-1,2.28,2.28,0,0,1,1.1-.21,1.62,1.62,0,0,1,1.18.61,2.58,2.58,0,0,1,.44,1.35c0,.47.05.93.07,1.41A47.92,47.92,0,0,1,288.55,198.55Z" style="fill:#263238"></path><path d="M293.08,192.64s.22-.25.66-.62a3,3,0,0,1,.93-.56,1.37,1.37,0,0,1,1.46.28,2.52,2.52,0,0,1,.6,1.7,3.28,3.28,0,0,1-.66,2,19.41,19.41,0,0,1-3.24,3.32l-.42.38v-.6c0-.48,0-1,0-1.49,0-1.8,0-3.51-.11-5.07,0-.77-.06-1.54-.15-2.19a1.29,1.29,0,0,0-1-1.24,2.65,2.65,0,0,0-2.28,1.07,9.37,9.37,0,0,1-.71.74,2.66,2.66,0,0,1,.56-.88,5.06,5.06,0,0,1,.87-.86,2.16,2.16,0,0,1,1.63-.44,1.47,1.47,0,0,1,.9.52,2.27,2.27,0,0,1,.43,1c.11.73.14,1.45.2,2.24.1,1.57.16,3.29.15,5.1,0,.52,0,1,0,1.5l-.41-.22a20,20,0,0,0,3.16-3.15,3,3,0,0,0,.63-1.69,2.24,2.24,0,0,0-.44-1.47,1.07,1.07,0,0,0-1.13-.25,3,3,0,0,0-.9.45A3.72,3.72,0,0,1,293.08,192.64Z" style="fill:#263238"></path><path d="M287.79,151.5s0-.2-.11-.52a2.23,2.23,0,0,0-.7-1.15,2,2,0,0,0-1.83-.41,1.95,1.95,0,0,0-.35,3.62,2,2,0,0,0,1.88-.06,2.2,2.2,0,0,0,.9-1c.14-.3.17-.5.21-.49s.07.2,0,.55a2.18,2.18,0,0,1-.9,1.24,2.34,2.34,0,0,1-2.28.18A2.4,2.4,0,0,1,285,149a2.34,2.34,0,0,1,2.2.6,2.17,2.17,0,0,1,.65,1.39C287.9,151.31,287.82,151.5,287.79,151.5Z" style="fill:#263238"></path><path d="M293.9,151.36a1.16,1.16,0,0,1,.09.92,1.66,1.66,0,0,1-.59.95,1.78,1.78,0,0,1-1.45.38,2.34,2.34,0,0,1-1.49-1,3.38,3.38,0,0,1-.5-2c0-1.46.76-2.88.74-4.39a2.76,2.76,0,0,0-.76-1.92,2.17,2.17,0,0,0-1.81-.48,3.27,3.27,0,0,0-2.4,2.22,7.21,7.21,0,0,0-.39,2.37,3.87,3.87,0,0,1,0,.91,2.33,2.33,0,0,1-.16-.9,6.41,6.41,0,0,1,.24-2.5,4.24,4.24,0,0,1,.88-1.54,3,3,0,0,1,1.79-1,2.62,2.62,0,0,1,2.23.58,3.16,3.16,0,0,1,.94,2.27c0,1.71-.75,3.11-.78,4.43a3,3,0,0,0,.38,1.75,2,2,0,0,0,1.2.91,1.5,1.5,0,0,0,1.21-.25,1.55,1.55,0,0,0,.57-.77A3.47,3.47,0,0,0,293.9,151.36Z" style="fill:#263238"></path><path d="M323.8,154.16a11.24,11.24,0,0,1-2.41.19h-.19v-.21a6.48,6.48,0,0,0-.38-2.19,1.93,1.93,0,0,0-3.13-1,2.89,2.89,0,0,0-.71,1.14,7.16,7.16,0,0,0-.37,2.33v.19h-.18a8.74,8.74,0,0,1-2-.17,8.34,8.34,0,0,1,2-.18l-.17.19a6.59,6.59,0,0,1,.27-2.51,3.26,3.26,0,0,1,.82-1.35A2.4,2.4,0,0,1,319,150a2.3,2.3,0,0,1,1.5.56,3.07,3.07,0,0,1,.8,1.24,6.53,6.53,0,0,1,.3,2.38l-.19-.2A10.49,10.49,0,0,1,323.8,154.16Z" style="fill:#263238"></path><path d="M324.47,156.68a54.87,54.87,0,0,1-10.67,0,54.87,54.87,0,0,1,10.67,0Z" style="fill:#263238"></path><path d="M259.25,92.41a4.06,4.06,0,0,1,.05,1c0,.64,0,1.56-.16,2.71a14.7,14.7,0,0,1-.94,3.93,8.26,8.26,0,0,1-1.22,2.13.77.77,0,0,1-.83.25.83.83,0,0,1-.43-.74c0-.43-.05-.86-.07-1.3-.14-2.91-.24-5.59-.31-7.69l.27.18c-1.42.48-2.58.86-3.4,1.1a5.55,5.55,0,0,1-1.29.33,6,6,0,0,1,1.21-.55c.8-.31,1.94-.74,3.35-1.26l.25-.1,0,.28c.14,2.1.28,4.77.42,7.68l.06,1.28c0,.19.08.31.12.31s.15,0,.27-.13a8.66,8.66,0,0,0,1.14-2,15.52,15.52,0,0,0,1-3.8C259.09,93.82,259.16,92.4,259.25,92.41Z" style="fill:#263238"></path><path d="M259.89,100.49a3.32,3.32,0,0,0,.2,1,2,2,0,0,0,2.16,1.13,3.38,3.38,0,0,0,2.63-2.6,3.9,3.9,0,0,0,0-2.27,4.07,4.07,0,0,0-1.57-1.88,5,5,0,0,1-1.84-2,1.84,1.84,0,0,1,.92-2.4,1.34,1.34,0,0,1,1.3.28,1.54,1.54,0,0,1,.55,1.09,2,2,0,0,1-1,1.77,3.49,3.49,0,0,1-2.85,0,3.83,3.83,0,0,1-.94-.44,5.73,5.73,0,0,1,1,.24,3.38,3.38,0,0,0,2.6-.16,1.59,1.59,0,0,0,.8-1.42,1,1,0,0,0-1.26-.94,1.35,1.35,0,0,0-.6,1.76,4.64,4.64,0,0,0,1.68,1.81,4.43,4.43,0,0,1,1.73,2.13,4.32,4.32,0,0,1,0,2.57,4.48,4.48,0,0,1-1.21,2,3.11,3.11,0,0,1-1.84.85,2.39,2.39,0,0,1-1.63-.42,2.1,2.1,0,0,1-.76-1A1.27,1.27,0,0,1,259.89,100.49Z" style="fill:#263238"></path><path d="M285.07,112.47a1.23,1.23,0,0,1,.83.31,2.18,2.18,0,0,1,.86,2.24,2.48,2.48,0,0,1-1,1.44,2.42,2.42,0,0,1-2,.38,2.54,2.54,0,0,1-1.75-1.38,1.72,1.72,0,0,1-.09-1.25,2.18,2.18,0,0,1,.76-1,10.15,10.15,0,0,1,7.67-1.35,8.67,8.67,0,0,1,2.25.81c.5.26.75.45.73.48a18.81,18.81,0,0,0-3-.93,10.74,10.74,0,0,0-3.42,0,9.45,9.45,0,0,0-3.86,1.44,1.28,1.28,0,0,0-.52,1.64,2,2,0,0,0,1.39,1.11,2,2,0,0,0,1.61-.26,2.16,2.16,0,0,0,.85-1.18,2,2,0,0,0-.62-2C285.37,112.58,285.05,112.52,285.07,112.47Z" style="fill:#263238"></path><path d="M290.81,119.6a1.23,1.23,0,0,1-.83-.31,2.16,2.16,0,0,1-.86-2.23,2.5,2.5,0,0,1,1-1.45,2.4,2.4,0,0,1,2-.37,2.48,2.48,0,0,1,1.74,1.37,1.72,1.72,0,0,1,.1,1.25,2.13,2.13,0,0,1-.76,1,10.18,10.18,0,0,1-7.68,1.36,9.22,9.22,0,0,1-2.25-.81,2.75,2.75,0,0,1-.73-.48,22.16,22.16,0,0,0,3.06.93,11,11,0,0,0,3.41,0,9.44,9.44,0,0,0,3.87-1.44,1.29,1.29,0,0,0,.52-1.64,2.07,2.07,0,0,0-1.39-1.11,2,2,0,0,0-1.61.27,2.09,2.09,0,0,0-.85,1.18,2,2,0,0,0,.62,2A6,6,0,0,0,290.81,119.6Z" style="fill:#263238"></path><path d="M313.53,190.34a31.28,31.28,0,0,1-.07-5,30.27,30.27,0,0,1,.21-4.95,19.61,19.61,0,0,1,.31,5A19.71,19.71,0,0,1,313.53,190.34Z" style="fill:#263238"></path><path d="M317.82,190.09c-.18,0,0-3.11-.24-6.9a12.77,12.77,0,0,0-.14-1.35.93.93,0,0,0-.61-.76,1.17,1.17,0,0,0-.9.28,6.07,6.07,0,0,0-.74.66c-.86.88-1.21,1.58-1.28,1.54a3.77,3.77,0,0,1,1-1.79,5.3,5.3,0,0,1,.75-.75,1.58,1.58,0,0,1,1.27-.41,1.41,1.41,0,0,1,1,1.11,10,10,0,0,1,.17,1.43,37.56,37.56,0,0,1,0,4.92A7.76,7.76,0,0,1,317.82,190.09Z" style="fill:#263238"></path><path d="M324,189.56s0,.25-.36.53a1.18,1.18,0,0,1-1.66-.43,1.34,1.34,0,0,1-.16-.63v-.6q0-.63-.06-1.32c0-.93-.11-2-.2-3,0-.53-.1-1.06-.14-1.57a2,2,0,0,0-.36-1.23.73.73,0,0,0-.94-.11,4.07,4.07,0,0,0-.87.66c-1,1-1.38,1.78-1.45,1.73a4.33,4.33,0,0,1,1.19-2,3.91,3.91,0,0,1,.93-.78,1.42,1.42,0,0,1,.73-.2,1.16,1.16,0,0,1,.76.36,2.43,2.43,0,0,1,.52,1.52c.05.51.1,1,.15,1.57.09,1.08.14,2.11.16,3.05,0,.47,0,.92,0,1.34,0,.21,0,.41,0,.61a.89.89,0,0,0,.09.44.92.92,0,0,0,1.22.44C323.88,189.74,324,189.53,324,189.56Z" style="fill:#263238"></path><path d="M324.59,190.65c-.15,0-.2-.78-.12-1.72v-.07l.31.28c-.89.2-1.62.25-1.65.12s.65-.42,1.54-.63l.35-.08,0,.36V189C324.91,189.91,324.73,190.66,324.59,190.65Z" style="fill:#263238"></path><path d="M322.55,207.07a34.69,34.69,0,0,1-3.76,4.79,35.42,35.42,0,0,1-4.16,4.45,70.66,70.66,0,0,1,7.92-9.24Z" style="fill:#263238"></path><path d="M322.3,212.46a4.87,4.87,0,0,1-.11-1.58c0-.57,0-1.14,0-1.72,0-.33,0-.67,0-1l0-.53v-.54h0c-.29-.24.4.31.33.26a28,28,0,0,1-5.27,1.18,28.88,28.88,0,0,1,5.13-1.69c-.07-.06.62.5.33.26h0v.26l0,.27c0,.18,0,.36,0,.54,0,.34-.05.67-.07,1,0,.58-.09,1.14-.13,1.71A4.56,4.56,0,0,1,322.3,212.46Z" style="fill:#263238"></path><path d="M319.14,216.25a10.68,10.68,0,0,1-2.56-2.13,11.26,11.26,0,0,1-2.2-2.49,10.53,10.53,0,0,1,2.56,2.12A10.8,10.8,0,0,1,319.14,216.25Z" style="fill:#263238"></path><path d="M320.28,232.35c.05,0-.1.57-.71,1.24a4.65,4.65,0,0,1-6.41.39c-.68-.59-.91-1.12-.86-1.15s.4.39,1.08.86a5,5,0,0,0,3,.86,4.93,4.93,0,0,0,2.9-1.23C319.94,232.77,320.21,232.31,320.28,232.35Z" style="fill:#263238"></path><path d="M320.43,238.66c-.05,0-.05-.34-.22-.91a3.8,3.8,0,0,0-1.41-2,3.69,3.69,0,0,0-3.44-.48,3.61,3.61,0,0,0,0,6.76,3.69,3.69,0,0,0,3.44-.48,3.8,3.8,0,0,0,1.41-2c.17-.57.17-.91.22-.91a2,2,0,0,1,0,1,3.87,3.87,0,0,1-1.39,2.24,4,4,0,0,1-3.82.63,4.06,4.06,0,0,1,0-7.66,4,4,0,0,1,3.82.63,3.87,3.87,0,0,1,1.39,2.24A2,2,0,0,1,320.43,238.66Z" style="fill:#263238"></path><path d="M316.69,249.24a21.54,21.54,0,0,1,0-6.8,22.36,22.36,0,0,1,0,6.8Z" style="fill:#263238"></path><path d="M319.64,245.66a16.92,16.92,0,0,1-5.91,0,16.92,16.92,0,0,1,5.91,0Z" style="fill:#263238"></path><path d="M300.65,324.89s-.15-.61-.56-1.7a12.59,12.59,0,0,0-2.65-4.2l-.43-.45.58.21a12.75,12.75,0,0,1,5.09,3.4,12.52,12.52,0,0,1,3.14,6.91,12.6,12.6,0,0,1-10,13.88,12.54,12.54,0,0,1-6.56-.41,12.83,12.83,0,0,1-5.2-3.34l-.71-.77,1,.37a12.26,12.26,0,0,0,10.05-.73,12.35,12.35,0,0,0,6.41-11.23,10.83,10.83,0,0,0-.11-1.44,2.1,2.1,0,0,1,0-.5,3.65,3.65,0,0,1,.12.49,10,10,0,0,1,.19,1.45,12.48,12.48,0,0,1-.88,5.38,12.55,12.55,0,0,1-15.92,7l.26-.4a12.41,12.41,0,0,0,5,3.2,12.19,12.19,0,0,0,13-19.64,12.43,12.43,0,0,0-4.9-3.38l.16-.24a12.25,12.25,0,0,1,2.59,4.34c.18.56.28,1,.35,1.3A2.63,2.63,0,0,1,300.65,324.89Z" style="fill:#263238"></path><path d="M280.49,435.9c-.05,0-.38-.7-1.08-1.94a25.68,25.68,0,0,0-3.54-4.85,23.73,23.73,0,0,0-7.14-5.23,26.85,26.85,0,0,0-4.94-1.73,28.12,28.12,0,0,0-5.59-.72,21.89,21.89,0,0,0-10.51,2.31,26.07,26.07,0,0,0-7.11,5.29,36.39,36.39,0,0,0-3.8,4.66c-.41.58-.7,1.06-.92,1.37a2.82,2.82,0,0,1-.34.46,2,2,0,0,1,.25-.52c.19-.32.45-.82.84-1.42a32.25,32.25,0,0,1,3.71-4.81,25.65,25.65,0,0,1,7.16-5.46,22.11,22.11,0,0,1,10.74-2.4,27.68,27.68,0,0,1,5.69.75,26.42,26.42,0,0,1,5,1.79,23.5,23.5,0,0,1,10.65,10.41c.35.63.54,1.16.7,1.5A3.76,3.76,0,0,1,280.49,435.9Z" style="fill:#263238"></path><path d="M280,436.18s-.1.13-.34.33-.59.51-1.08.84a26.59,26.59,0,0,1-4.32,2.58,38.3,38.3,0,0,1-16.12,3.62,34.47,34.47,0,0,1-16.05-3.83,30.31,30.31,0,0,1-4.28-2.65c-.49-.34-.83-.65-1.08-.84a1.78,1.78,0,0,1-.35-.33,15.6,15.6,0,0,1,1.54,1,37.38,37.38,0,0,0,4.33,2.48A35.67,35.67,0,0,0,258.11,443a39.62,39.62,0,0,0,16-3.42,31.8,31.8,0,0,0,4.37-2.41A18.3,18.3,0,0,1,280,436.18Z" style="fill:#263238"></path><path d="M267.69,432.07c-.07,0,0-.85-.4-2.31a9.47,9.47,0,0,0-3.49-5.14,9.34,9.34,0,0,0-3.94-1.73,9.45,9.45,0,0,0-4.9.43,8.66,8.66,0,0,0-2.35,1.27,8.81,8.81,0,0,0-2,2,9.3,9.3,0,0,0,0,11,8.77,8.77,0,0,0,2,2,8.86,8.86,0,0,0,2.36,1.27,9.35,9.35,0,0,0,4.9.42,9.2,9.2,0,0,0,3.94-1.72,9.5,9.5,0,0,0,3.49-5.14c.38-1.46.33-2.32.4-2.31a7.16,7.16,0,0,1-.2,2.36,9.52,9.52,0,0,1-3.46,5.38,9.68,9.68,0,0,1-9.24,1.46,9.27,9.27,0,0,1-2.48-1.32,9.54,9.54,0,0,1-2.08-2.08,9.72,9.72,0,0,1,0-11.6,9.12,9.12,0,0,1,2.08-2.08,9,9,0,0,1,2.48-1.32,9.71,9.71,0,0,1,9.24,1.45,9.54,9.54,0,0,1,3.46,5.39A7.16,7.16,0,0,1,267.69,432.07Z" style="fill:#263238"></path><circle cx="258.35" cy="431.88" r="2.68" style="fill:#263238"></circle><path d="M281.13,433.14s-.14-.13-.38-.41l-1-1.25a53.3,53.3,0,0,0-4-4.33,29.81,29.81,0,0,0-7-5.1,24.89,24.89,0,0,0-10.17-2.66,24.36,24.36,0,0,0-10.36,1.8,25.27,25.27,0,0,0-7.28,4.63,25.85,25.85,0,0,0-3.85,4.4c-.8,1.14-1.15,1.82-1.2,1.8a1.76,1.76,0,0,1,.23-.51,14.55,14.55,0,0,1,.8-1.4,23.16,23.16,0,0,1,3.77-4.56,24.83,24.83,0,0,1,7.34-4.8,24.38,24.38,0,0,1,10.57-1.88A24.79,24.79,0,0,1,269,421.63a28.61,28.61,0,0,1,7,5.26,42.19,42.19,0,0,1,3.87,4.47c.42.56.73,1,.94,1.3A3.25,3.25,0,0,1,281.13,433.14Z" style="fill:#263238"></path><path d="M238.93,427.38a7.1,7.1,0,0,1-2.37-1.71,7.18,7.18,0,0,1-1.9-2.23,10,10,0,0,1,2.25,1.84A10.39,10.39,0,0,1,238.93,427.38Z" style="fill:#263238"></path><path d="M245.21,422.38a16.18,16.18,0,0,1-3.2-3.47,16,16,0,0,1-2.49-4,31.53,31.53,0,0,1,2.91,3.69A32.2,32.2,0,0,1,245.21,422.38Z" style="fill:#263238"></path><path d="M253,409.23a41.92,41.92,0,0,1,.71,5,42.84,42.84,0,0,1,.61,5.06,18.06,18.06,0,0,1-1.13-5A18.77,18.77,0,0,1,253,409.23Z" style="fill:#263238"></path><path d="M269.81,411.1a31.48,31.48,0,0,1-1.61,4.8,30.41,30.41,0,0,1-1.9,4.69,35.06,35.06,0,0,1,3.51-9.49Z" style="fill:#263238"></path><path d="M280.82,420.32a21.13,21.13,0,0,1-2.89,2.87,20.62,20.62,0,0,1-3.1,2.65,22.52,22.52,0,0,1,6-5.52Z" style="fill:#263238"></path></g><g id="freepik--Table--inject-83"><path d="M466.38,483.76c0,.14-96.89.26-216.37.26s-216.39-.12-216.39-.26,96.87-.26,216.39-.26S466.38,483.61,466.38,483.76Z" style="fill:#263238"></path></g><g id="freepik--Plants--inject-83"><path d="M352.78,305.62a.92.92,0,0,1,.07.29c0,.23.08.52.14.88s.13.87.19,1.43.09,1.24.14,2A44.65,44.65,0,0,1,352,322.67a71.16,71.16,0,0,1-7,17.25c-3.38,6.17-7.83,12.48-12.43,19.12s-8.83,13.08-11.83,19.39A61.29,61.29,0,0,0,315.23,396a40.87,40.87,0,0,0,.08,12.44c.13.72.26,1.36.37,1.93s.26,1,.35,1.39.16.64.21.86a.87.87,0,0,1,.05.3,2.73,2.73,0,0,1-.11-.28c-.07-.22-.15-.5-.26-.84s-.27-.84-.41-1.39-.27-1.21-.43-1.93a39.82,39.82,0,0,1-.26-12.54,60.44,60.44,0,0,1,5.46-17.78c3-6.37,7.24-12.85,11.84-19.49s9.05-12.93,12.43-19a72.45,72.45,0,0,0,7.05-17.09,46.31,46.31,0,0,0,1.49-12.37c0-.73-.06-1.39-.08-2s-.11-1.05-.14-1.43-.06-.66-.08-.89A1.69,1.69,0,0,1,352.78,305.62Z" style="fill:#263238"></path><path d="M342.58,365.73c-.24-.25-.76-.17-1.19-.06a21.09,21.09,0,0,0-9.19,5.09,14.8,14.8,0,0,0-4.55,8.14l.62-.23a17.44,17.44,0,0,0,8.41-4.65,41.67,41.67,0,0,0,5.66-7.14C342.6,366.49,342.86,366,342.58,365.73Z" style="fill:#EDB28C"></path><path d="M328.38,339.52c-.35,0-.64.44-.85.83A21.11,21.11,0,0,0,325,350.56a14.86,14.86,0,0,0,2.88,8.87l.26-.62a17.42,17.42,0,0,0,2.3-9.33,42.59,42.59,0,0,0-1.4-9C329,340,328.77,339.5,328.38,339.52Z" style="fill:#EDB28C"></path><path d="M336.46,370.57a4.56,4.56,0,0,1-.7,1.09,22.14,22.14,0,0,1-2.36,2.63c-2.12,2.12-5.52,4.47-9.06,7.25a25.58,25.58,0,0,0-7.43,8.63,19.36,19.36,0,0,0-1.37,4.54,4.62,4.62,0,0,1,0-1.3,12.41,12.41,0,0,1,1-3.41c1.15-2.8,3.85-6.1,7.43-8.92s7-5.08,9.15-7.09S336.38,370.5,336.46,370.57Z" style="fill:#263238"></path><path d="M362.33,339.27c-.19-.29-.71-.31-1.15-.28a21.09,21.09,0,0,0-10,3.23,14.86,14.86,0,0,0-6,7.13l.65-.11a17.47,17.47,0,0,0,9.15-3,42.37,42.37,0,0,0,6.92-5.93C362.21,340,362.56,339.59,362.33,339.27Z" style="fill:#EDB28C"></path><path d="M355.4,342.85a4.85,4.85,0,0,1-.9.94,22.32,22.32,0,0,1-2.84,2.14c-2.5,1.69-6.32,3.35-10.35,5.42a28.7,28.7,0,0,0-8.67,7.52c-1.86,2.33-2.84,3.9-2.92,3.85a5.57,5.57,0,0,1,.61-1.15c.43-.72,1.09-1.74,2-2.95a27,27,0,0,1,8.73-7.78c4.07-2.09,7.88-3.68,10.4-5.25S355.33,342.77,355.4,342.85Z" style="fill:#263238"></path><path d="M371.32,296.63c-.29-.2-.78,0-1.18.16a21,21,0,0,0-8.14,6.65,14.78,14.78,0,0,0-3,8.83l.57-.35a17.37,17.37,0,0,0,7.44-6.07,42.55,42.55,0,0,0,4.29-8.05C371.47,297.38,371.64,296.85,371.32,296.63Z" style="fill:#EDB28C"></path><path d="M366.16,302.49a2.65,2.65,0,0,1-.31.87,20.35,20.35,0,0,1-1.24,2.23,45.63,45.63,0,0,1-5.31,6.47c-1.11,1.19-2.17,2.32-3.11,3.37a25.32,25.32,0,0,0-2.24,2.95c-1.14,1.78-1.69,3-1.78,2.95a2.77,2.77,0,0,1,.29-.89,21.63,21.63,0,0,1,1.14-2.27,20.6,20.6,0,0,1,2.19-3.09c.92-1.08,2-2.23,3.09-3.42a61,61,0,0,0,5.39-6.3C365.51,303.64,366.07,302.44,366.16,302.49Z" style="fill:#263238"></path><path d="M328.13,344.53a4.82,4.82,0,0,1,.22,1.24c.1.8.19,2,.23,3.42s0,3.17-.12,5.08a30.64,30.64,0,0,1-1,6.17c-.33,1.09-.78,2.06-1.17,3s-.78,1.88-1.14,2.76c-.72,1.76-1.33,3.37-1.78,4.73-.93,2.72-1.3,4.46-1.4,4.45a5.64,5.64,0,0,1,.17-1.25c.15-.8.42-1.94.83-3.33s1-3,1.68-4.8l1.12-2.78c.38-1,.83-1.94,1.13-3a32,32,0,0,0,1-6c.16-1.89.22-3.6.23-5s0-2.6,0-3.41A5,5,0,0,1,328.13,344.53Z" style="fill:#263238"></path><path d="M343.81,311.19c-.34.07-.55.54-.7,1a21,21,0,0,0-.81,10.47,14.86,14.86,0,0,0,4.3,8.28l.15-.65a17.4,17.4,0,0,0,.74-9.58,42.27,42.27,0,0,0-2.85-8.66C344.46,311.6,344.2,311.11,343.81,311.19Z" style="fill:#EDB28C"></path><path d="M344.13,316.21a12.93,12.93,0,0,1,1.12,3.11,49.78,49.78,0,0,1,1.51,7.83,26.6,26.6,0,0,1,.14,4.41,27.13,27.13,0,0,1-.56,3.55,18.5,18.5,0,0,1-.77,3.21,20.41,20.41,0,0,1,.36-3.28c.13-1,.39-2.2.44-3.51a31.07,31.07,0,0,0-.19-4.32,71.09,71.09,0,0,0-1.33-7.79A31.49,31.49,0,0,1,344.13,316.21Z" style="fill:#263238"></path><path d="M171.28,369.23a5.08,5.08,0,0,1,.45.74c.31.54.71,1.26,1.21,2.15,1.05,1.87,2.61,4.55,4.58,7.83s4.38,7.16,7,11.53a152.4,152.4,0,0,1,7.72,14.59,74.52,74.52,0,0,1,5.1,15.72,51.62,51.62,0,0,1,.95,13.46,37.73,37.73,0,0,1-1.64,8.95,23.06,23.06,0,0,1-.83,2.33,4.19,4.19,0,0,1-.35.79,4.54,4.54,0,0,1,.23-.83c.15-.55.47-1.32.72-2.36a41.44,41.44,0,0,0,1.43-8.9,52.89,52.89,0,0,0-1.08-13.32,75.86,75.86,0,0,0-5.11-15.58A162,162,0,0,0,184,391.77l-6.85-11.59c-1.93-3.32-3.43-6-4.41-7.94-.51-.95-.86-1.71-1.11-2.21A4.42,4.42,0,0,1,171.28,369.23Z" style="fill:#263238"></path><path d="M170.28,394.3c.28-.25.83-.13,1.29,0a23,23,0,0,1,9.61,6.15,16.26,16.26,0,0,1,4.36,9.15l-.66-.3a18.9,18.9,0,0,1-8.79-5.62,45.93,45.93,0,0,1-5.63-8.14C170.2,395.12,170,394.58,170.28,394.3Z" style="fill:#EDB28C"></path><path d="M187.51,366.9c.37,0,.66.53.86,1a23,23,0,0,1,2,11.24,16.13,16.13,0,0,1-3.76,9.4l-.22-.68a18.92,18.92,0,0,1-1.85-10.27,45.87,45.87,0,0,1,2.16-9.66C186.85,367.41,187.08,366.85,187.51,366.9Z" style="fill:#EDB28C"></path><path d="M176.57,400c.09-.07,1.13,1.65,3.38,3.94s5.73,5,9.41,8.33,6.38,7.07,7.43,10.18a13.62,13.62,0,0,1,.8,3.77,4.91,4.91,0,0,1-.05,1.4,21,21,0,0,0-1.17-5c-1.13-3-3.8-6.61-7.43-9.88s-7.17-6-9.31-8.48a25.1,25.1,0,0,1-2.38-3A5.25,5.25,0,0,1,176.57,400Z" style="fill:#263238"></path><path d="M150.74,364.24c.23-.29.79-.28,1.27-.22a22.88,22.88,0,0,1,10.61,4.21,16.13,16.13,0,0,1,6,8.14l-.7-.17a19,19,0,0,1-9.71-3.84,45.85,45.85,0,0,1-7.07-6.91C150.82,365.07,150.48,364.58,150.74,364.24Z" style="fill:#EDB28C"></path><path d="M158,368.61c.08-.08,1.43,1.41,4.09,3.24s6.64,3.87,10.91,6.42a29.41,29.41,0,0,1,8.91,9.05c.88,1.37,1.52,2.52,1.94,3.33a5.55,5.55,0,0,1,.57,1.29c-.09.06-1-1.72-2.88-4.37a31.25,31.25,0,0,0-8.87-8.76c-4.22-2.53-8.24-4.6-10.83-6.6a23.47,23.47,0,0,1-2.93-2.52A5.2,5.2,0,0,1,158,368.61Z" style="fill:#263238"></path><path d="M187.43,372.34a5.79,5.79,0,0,1-.09,1.36c-.09.87-.19,2.13-.28,3.69s-.14,3.42-.1,5.48a35,35,0,0,0,.69,6.62c.26,1.13.67,2.23,1,3.3l1,3.09c.62,2,1.13,3.78,1.47,5.31s.57,2.79.68,3.66a5.25,5.25,0,0,1,.09,1.37c-.1,0-.39-1.9-1.2-4.92-.4-1.51-.94-3.28-1.59-5.24l-1-3.07c-.36-1.07-.78-2.16-1.06-3.36a33.53,33.53,0,0,1-.65-6.76c0-2.08.1-3.95.24-5.51s.32-2.83.48-3.69A5.22,5.22,0,0,1,187.43,372.34Z" style="fill:#263238"></path><path d="M158.3,345.81c-3.76-2.38-6.83-3.61-9-7.35a16.22,16.22,0,0,1-1.46-12.53,22.89,22.89,0,0,1,10.44,19.88" style="fill:#EDB28C"></path><path d="M342.18,293.24c-1.67-4.13-3.45-6.91-3-11.2a16.22,16.22,0,0,1,6.11-11,22.91,22.91,0,0,1-3.09,22.24" style="fill:#EDB28C"></path><path d="M193,117.42c.29.24.25.81.18,1.28a22.94,22.94,0,0,1-4.57,10.46,16.09,16.09,0,0,1-8.34,5.74l.19-.7a18.9,18.9,0,0,1,4.17-9.56,45.59,45.59,0,0,1,7.15-6.84C192.14,117.48,192.64,117.15,193,117.42Z" style="fill:#EDB28C"></path><path d="M187.66,125a1.59,1.59,0,0,1-.17.25l-.53.67-.88,1.1a15.69,15.69,0,0,0-1.16,1.52A55.75,55.75,0,0,0,178.85,139a70.28,70.28,0,0,0-5.08,17.25,95.65,95.65,0,0,0-.94,22A167.77,167.77,0,0,0,176,200.14c1.38,6.67,2.85,12.62,4.06,17.62s2.19,9.06,2.81,11.87c.32,1.41.54,2.5.7,3.25.07.34.12.62.17.84a1.58,1.58,0,0,1,0,.29s0-.09-.09-.28-.13-.49-.22-.83l-.8-3.22-3-11.83c-1.26-5-2.76-10.94-4.17-17.61a164.61,164.61,0,0,1-3.24-21.93,94.91,94.91,0,0,1,1-22.14,69.33,69.33,0,0,1,5.21-17.33,53.78,53.78,0,0,1,6.25-10.48,16.43,16.43,0,0,1,1.2-1.49l.92-1.06.57-.65Z" style="fill:#263238"></path><path d="M189.05,152.89c.32.2.36.76.35,1.24a23,23,0,0,1-3.13,11,16.17,16.17,0,0,1-7.51,6.79l.09-.71a19,19,0,0,1,2.87-10,45.68,45.68,0,0,1,6.18-7.73C188.24,153.06,188.69,152.66,189.05,152.89Z" style="fill:#EDB28C"></path><path d="M156,174.58c-.29.24-.24.81-.16,1.28a22.91,22.91,0,0,0,4.74,10.38,16.13,16.13,0,0,0,8.44,5.6l-.2-.69a19,19,0,0,0-4.33-9.5,45.36,45.36,0,0,0-7.27-6.71C156.87,174.62,156.36,174.3,156,174.58Z" style="fill:#EDB28C"></path><path d="M184.1,162.42a5.65,5.65,0,0,1-.59,1.1c-.41.69-1,1.7-1.66,3a63.46,63.46,0,0,0-4.36,10.28,62.22,62.22,0,0,0-2.41,10.9c-.18,1.42-.3,2.58-.37,3.38a4.9,4.9,0,0,1-.16,1.24,7.25,7.25,0,0,1,0-1.25c0-.81.07-2,.2-3.41a53.4,53.4,0,0,1,6.82-21.32c.72-1.24,1.34-2.23,1.81-2.89A5.49,5.49,0,0,1,184.1,162.42Z" style="fill:#263238"></path><path d="M172,138.57a4.9,4.9,0,0,1,1,2,27.09,27.09,0,0,1,1.09,5.32,30.75,30.75,0,0,1,.17,5.43,7,7,0,0,1-.37,2.22,16.41,16.41,0,0,1,0-2.23,48.05,48.05,0,0,0-.31-5.36,39.64,39.64,0,0,0-.93-5.27C172.31,139.37,171.92,138.61,172,138.57Z" style="fill:#263238"></path><path d="M160.84,182.2a6.25,6.25,0,0,1,.88.8c.55.54,1.31,1.35,2.22,2.37a78.41,78.41,0,0,1,11.86,17.79c.6,1.23,1,2.25,1.34,3a6.43,6.43,0,0,1,.4,1.12,4.88,4.88,0,0,1-.59-1l-1.48-2.88a98.24,98.24,0,0,0-11.81-17.71l-2.09-2.47A4.5,4.5,0,0,1,160.84,182.2Z" style="fill:#263238"></path><path d="M299.54,49.84c.38,0,.69.48.93.9a23,23,0,0,1,2.77,11.07,16.13,16.13,0,0,1-3.1,9.64l-.28-.67a18.91,18.91,0,0,1-2.54-10.12,46,46,0,0,1,1.49-9.78C298.92,50.39,299.12,49.82,299.54,49.84Z" style="fill:#EDB28C"></path><path d="M320.43,69.89c-.38,0-.73.43-1,.84A22.79,22.79,0,0,0,316,81.6a16.1,16.1,0,0,0,2.49,9.82l.32-.65A19,19,0,0,0,322,80.83a45.7,45.7,0,0,0-.88-9.86C321,70.47,320.85,69.9,320.43,69.89Z" style="fill:#EDB28C"></path><path d="M333.92,121a5.52,5.52,0,0,1-.29-.69c-.2-.5-.46-1.17-.78-2a67.63,67.63,0,0,0-3.37-7.12,60.46,60.46,0,0,0-6.57-9.65c-2.79-3.4-6.2-6.84-9.7-10.55a72.47,72.47,0,0,1-9-11.2A35,35,0,0,1,299.57,69a23,23,0,0,1-.52-7.89l.17-1.24.21-.89a3.41,3.41,0,0,1,.2-.72,5.68,5.68,0,0,1-.1.74c0,.26-.1.56-.15.9s-.08.77-.13,1.23a24.28,24.28,0,0,0,.67,7.79,36,36,0,0,0,4.66,10.63,74.61,74.61,0,0,0,9,11.09c3.49,3.7,6.9,7.17,9.69,10.61A58.91,58.91,0,0,1,329.8,111a59.57,59.57,0,0,1,3.24,7.23c.32.88.55,1.57.69,2A4,4,0,0,1,333.92,121Z" style="fill:#263238"></path><path d="M319.3,79.56c.08,0-.35,1.1-.74,2.88a21.19,21.19,0,0,0,1.68,13.83c.81,1.63,1.48,2.55,1.4,2.61s-.22-.2-.53-.6a13.51,13.51,0,0,1-1.19-1.84,19.35,19.35,0,0,1-1.72-14.09,13.91,13.91,0,0,1,.72-2.07C319.13,79.8,319.26,79.55,319.3,79.56Z" style="fill:#263238"></path><path d="M307.35,85.65A43.87,43.87,0,0,0,301.67,82a43.74,43.74,0,0,0-6.37-2.23,6,6,0,0,1,2,.2A19.37,19.37,0,0,1,306,84.2,5.91,5.91,0,0,1,307.35,85.65Z" style="fill:#263238"></path></g><g id="freepik--Stars--inject-83"><path d="M159.57,63.65l5.13,1.68-5.21,2.21A4.38,4.38,0,0,0,157,70.35l-2.14,7.32L153,70.6a4.36,4.36,0,0,0-3-3.09l-5.83-1.75,5.51-1.88a4.39,4.39,0,0,0,2.83-3.08L154.48,53l2.27,7.7A4.4,4.4,0,0,0,159.57,63.65Z" style="fill:#EDB28C"></path><path d="M169.4,42.68l2.53.83-2.57,1.09A2.14,2.14,0,0,0,168.13,46l-1.06,3.62-.91-3.49a2.15,2.15,0,0,0-1.47-1.52l-2.88-.87,2.72-.93a2.14,2.14,0,0,0,1.4-1.52l1-3.84,1.12,3.8A2.19,2.19,0,0,0,169.4,42.68Z" style="fill:#EDB28C"></path><path d="M350.86,161.54l2.52.84-2.58,1.08a2.18,2.18,0,0,0-1.24,1.38l-1.07,3.61-.9-3.5a2.15,2.15,0,0,0-1.45-1.53l-2.88-.88,2.73-.91a2.18,2.18,0,0,0,1.4-1.52l1-3.83,1.1,3.81A2.15,2.15,0,0,0,350.86,161.54Z" style="fill:#EDB28C"></path><path d="M94.49,187.12l9.11,3.06-9.31,3.89a7.78,7.78,0,0,0-4.47,5l-3.88,13L82.7,199.44a7.8,7.8,0,0,0-5.26-5.52l-10.39-3.19,9.85-3.29A7.81,7.81,0,0,0,82,182l3.54-13.84,4,13.75A7.83,7.83,0,0,0,94.49,187.12Z" style="fill:#EDB28C"></path><path d="M364.6,182.07l5.41,1.82-5.52,2.31a4.6,4.6,0,0,0-2.65,3l-2.31,7.74-1.92-7.5a4.62,4.62,0,0,0-3.13-3.28l-6.16-1.9,5.84-2a4.64,4.64,0,0,0,3-3.24l2.1-8.22,2.35,8.16A4.62,4.62,0,0,0,364.6,182.07Z" style="fill:#EDB28C"></path><path d="M408.27,244l5.19,1.74-5.3,2.21a4.43,4.43,0,0,0-2.55,2.83l-2.21,7.42L401.56,251a4.42,4.42,0,0,0-3-3.14L392.65,246l5.6-1.87a4.46,4.46,0,0,0,2.9-3.12l2-7.88,2.25,7.83A4.46,4.46,0,0,0,408.27,244Z" style="fill:#EDB28C"></path><path d="M404.07,342.06l1.77.59-1.81.76a1.53,1.53,0,0,0-.87,1l-.75,2.53-.63-2.45a1.54,1.54,0,0,0-1-1.08l-2-.62,1.92-.64a1.51,1.51,0,0,0,1-1.06l.68-2.7.77,2.68A1.54,1.54,0,0,0,404.07,342.06Z" style="fill:#EDB28C"></path><path d="M109.93,152.84l2.85.95L109.87,155a2.42,2.42,0,0,0-1.4,1.56l-1.22,4.08-1-4a2.44,2.44,0,0,0-1.65-1.73l-3.25-1,3.08-1a2.47,2.47,0,0,0,1.6-1.72l1.1-4.33,1.24,4.31A2.45,2.45,0,0,0,109.93,152.84Z" style="fill:#EDB28C"></path><path d="M417.64,229.62l1.91.64-1.95.82a1.62,1.62,0,0,0-.94,1l-.81,2.73-.68-2.65a1.64,1.64,0,0,0-1.11-1.16l-2.18-.66,2.07-.7a1.62,1.62,0,0,0,1.07-1.14l.74-2.91.83,2.89A1.63,1.63,0,0,0,417.64,229.62Z" style="fill:#EDB28C"></path><path d="M136.31,419.93l5.23,1.75-5.34,2.23a4.51,4.51,0,0,0-2.56,2.85l-2.22,7.47L129.56,427a4.46,4.46,0,0,0-3-3.16l-6-1.83,5.64-1.89a4.48,4.48,0,0,0,2.92-3.13l2-7.94,2.27,7.89A4.49,4.49,0,0,0,136.31,419.93Z" style="fill:#EDB28C"></path><path d="M394.67,114A12.39,12.39,0,0,1,393,92.4,12.4,12.4,0,1,0,401.35,115,12.41,12.41,0,0,1,394.67,114Z" style="fill:#EDB28C"></path><path d="M406.45,99.05l1.15.39-1.18.49a1,1,0,0,0-.56.63l-.49,1.65-.41-1.6a1,1,0,0,0-.67-.7l-1.31-.4,1.24-.42a1,1,0,0,0,.64-.69l.45-1.75.5,1.74A1,1,0,0,0,406.45,99.05Z" style="fill:#EDB28C"></path><path d="M380.59,318.71l.56.19-.58.24a.47.47,0,0,0-.27.3l-.25.81-.2-.78a.48.48,0,0,0-.32-.34l-.65-.2.61-.2a.5.5,0,0,0,.32-.34l.22-.86.24.85A.52.52,0,0,0,380.59,318.71Z" style="fill:#EDB28C"></path><path d="M117.54,399.92l1.21.4-1.24.52a1.05,1.05,0,0,0-.6.67l-.51,1.74-.44-1.69a1,1,0,0,0-.7-.74l-1.38-.42,1.31-.44a1.06,1.06,0,0,0,.68-.73l.47-1.85.53,1.84A1,1,0,0,0,117.54,399.92Z" style="fill:#EDB28C"></path></g></svg>